<svg width="54" height="47" viewBox="0 0 54 47" fill="none" xmlns="http://www.w3.org/2000/svg">
<path opacity="0.05" d="M48.9375 23.5H40.5V16.7857C40.5 13.0824 43.527 10.0714 47.25 10.0714H48.0938C49.4965 10.0714 50.625 8.94888 50.625 7.55357V2.51786C50.625 1.12254 49.4965 0 48.0938 0H47.25C37.9266 0 30.375 7.51161 30.375 16.7857V41.9643C30.375 44.7444 32.6426 47 35.4375 47H48.9375C51.7324 47 54 44.7444 54 41.9643V28.5357C54 25.7556 51.7324 23.5 48.9375 23.5ZM18.5625 23.5H10.125V16.7857C10.125 13.0824 13.152 10.0714 16.875 10.0714H17.7188C19.1215 10.0714 20.25 8.94888 20.25 7.55357V2.51786C20.25 1.12254 19.1215 0 17.7188 0H16.875C7.55156 0 0 7.51161 0 16.7857V41.9643C0 44.7444 2.26758 47 5.0625 47H18.5625C21.3574 47 23.625 44.7444 23.625 41.9643V28.5357C23.625 25.7556 21.3574 23.5 18.5625 23.5Z" fill="black"/>
</svg>
